<?xml version="1.0" encoding="UTF-8"?>
<!DOCTYPE svg PUBLIC "-//W3C//DTD SVG 1.1//EN" "http://www.w3.org/Graphics/SVG/1.1/DTD/svg11.dtd">
<!-- Creator: CorelDRAW 2019 (64-Bit) -->
<svg xmlns="http://www.w3.org/2000/svg" xml:space="preserve" width="6.33197in" height="1.38603in" version="1.1" style="shape-rendering:geometricPrecision; text-rendering:geometricPrecision; image-rendering:optimizeQuality; fill-rule:evenodd; clip-rule:evenodd"
viewBox="0 0 6329.64 1385.52"
 xmlns:xlink="http://www.w3.org/1999/xlink"
 xmlns:xodm="http://www.corel.com/coreldraw/odm/2003">
 <defs>
  <style type="text/css">
   <![CDATA[
    .str0 {stroke:#4380A0;stroke-width:3;stroke-miterlimit:2.61313}
    .fil2 {fill:#43809F}
    .fil0 {fill:#00AAFF;fill-rule:nonzero}
    .fil1 {fill:#4380A0;fill-rule:nonzero}
   ]]>
  </style>
 </defs>
 <g id="Layer_x0020_1">
  <metadata id="CorelCorpID_0Corel-Layer"/>
  <g id="_2393384183792">
   <path class="fil0" d="M5299.95 664.84l-549.55 -309.13c-10.65,-5.97 -23.63,-5.84 -34.14,0.28 -10.58,6.18 -17.04,17.45 -17.04,29.68l0 618.24c0,12.23 6.46,23.5 17.04,29.68 5.36,3.09 11.33,4.67 17.31,4.67 5.77,0 11.61,-1.44 16.83,-4.4l549.55 -309.13c10.79,-6.11 17.52,-17.52 17.52,-29.95 0,-12.43 -6.73,-23.84 -17.52,-29.95z"/>
   <path class="fil1" d="M5579.07 788.66l-0 -106.37 204.46 0 0 -33.73c0,-11.75 9.53,-21.28 21.28,-21.28l503.56 0c11.75,0 21.28,9.52 21.28,21.28l0 170.22c-0,11.75 -9.53,21.27 -21.28,21.28l-503.56 0c-11.75,0 -21.28,-9.53 -21.28,-21.28l0 -30.11 -204.46 0z"/>
   <path class="fil2" d="M4938.95 0c381.89,0 691.48,309.59 691.48,691.48 0,381.9 -309.59,691.49 -691.48,691.49 -381.9,0 -691.49,-309.59 -691.49,-691.49 0,-381.89 309.59,-691.48 691.49,-691.48zm0 136.13c306.71,0 555.35,248.64 555.35,555.35 0,306.71 -248.64,555.35 -555.35,555.35 -306.71,0 -555.35,-248.64 -555.35,-555.35 0,-306.71 248.64,-555.35 555.35,-555.35z"/>
   <polygon class="fil1 str0" points="3312.77,1334.41 3312.77,33.63 4113.81,33.63 4113.81,301.88 3614.08,301.88 3614.08,537.05 4042.16,537.05 4042.16,803.44 3614.08,803.44 3614.08,1060.66 4121.17,1060.66 4121.17,1334.41 "/>
   <path class="fil1 str0" d="M1973.41 1334.41l0 -1300.78 345.4 0c242.83,0 433.29,57.87 570.78,173.93 137.48,116.05 206.38,274.98 206.38,476.47 0,120.64 -27.25,228.12 -81.76,321.52 -54.2,93.7 -134.12,170.56 -239.46,231.19 -60.02,34.61 -124.93,59.41 -195.36,74.72 -70.12,15.31 -157.09,22.96 -260.59,22.96l-345.4 0zm306.82 -279.26l68.29 0c135.65,0 241.9,-32.76 318.45,-98.6 76.55,-65.83 114.83,-156.47 114.83,-272.52 0,-116.06 -38.28,-207 -114.83,-273.45 -76.55,-66.45 -182.81,-99.52 -318.45,-99.52l-68.29 0 0 744.09z"/>
   <polygon class="fil1 str0" points="1359.76,1334.41 1359.76,33.63 1670.26,33.63 1670.26,1334.41 "/>
   <polygon class="fil1 str0" points="637.72,1384.02 616.28,1384.02 2.33,33.63 330.89,33.63 637.72,744.96 947.3,33.63 1251.67,33.63 "/>
  </g>
 </g>
</svg>
